<svg width="1920" height="195" viewBox="0 0 1920 195" fill="none" xmlns="http://www.w3.org/2000/svg">
<g clip-path="url(#clip0_539_3127)">
<path d="M8779.88 -4.88446H-4.88428V199.884H8779.88V-4.88446Z" fill="#448EF6"/>
<path d="M911.181 123.212H821.167V103.709C831.726 102.505 839.912 94.215 839.912 84.5149C839.912 75.6403 826.739 54.7266 821.029 46.0928C820.032 44.5793 817.624 44.5105 816.489 46.0928C814.907 48.4662 811.949 53.0067 808.819 58.3383C803.797 40.7268 792.205 15.4789 792.102 15.2037C791.655 14.2406 790.692 13.6215 789.626 13.6215C788.559 13.6215 787.596 14.2406 787.08 15.3413C783.916 22.2897 768.025 57.6848 768.025 70.7559C768.025 83.827 775.455 95.3158 785.773 97.5516V123.247H755.092V81.2127C755.092 79.7681 753.923 78.5985 752.478 78.5985H710.446V72.5446C710.446 70.9967 709.174 69.7239 707.626 69.7239H684.202C682.655 69.7239 681.313 71.0311 681.313 72.5446V76.8098L661.604 67.3849C660.848 67.0065 659.885 67.0065 659.128 67.3849L630.098 82.4855V68.4856C630.098 66.9033 628.928 65.6306 627.484 65.6306H541.804C540.221 65.6306 538.949 66.9033 538.949 68.4856V83.9646H522.198C520.788 83.9646 519.137 85.2029 519.137 86.7852V115.61H500.116V86.7852C500.116 85.2029 498.981 83.9646 497.536 83.9646H448.178C446.665 83.9646 445.254 85.3061 445.254 86.7852V122.834L420.558 109.006C419.733 108.524 418.735 108.524 417.91 109.006L390.909 124.279L389.568 123.591V81.1783C389.568 79.6305 388.57 78.5641 387.091 78.5641H344.922V72.5101C344.922 70.9279 343.752 69.6895 342.308 69.6895H318.85C317.439 69.6895 315.823 70.9279 315.823 72.5101V76.7755L296.183 67.3505C295.426 66.9721 294.463 66.9721 293.672 67.3505L264.607 82.451V68.4512C264.607 66.8345 263.541 65.5962 262.131 65.5962H176.416C174.903 65.5962 173.665 66.9033 173.665 68.4512V83.9301H156.88C155.297 83.9301 154.025 85.2029 154.025 86.7852V115.61H134.625V86.7852C134.625 85.1341 133.594 83.9646 132.183 83.9646H82.8253C81.3463 83.9646 80.1425 85.2373 80.1425 86.7852V143.3L55.3431 129.473C54.5176 128.991 53.4513 128.991 52.6258 129.473L26.4162 144.298L-0.10305 129.438C-0.928551 128.957 -1.96042 128.957 -2.78592 129.438L-27.5509 143.472V86.7852C-27.5165 85.1341 -28.514 83.9646 -29.9586 83.9646H-79.3167C-80.7957 83.9646 -81.9996 85.2373 -81.9996 86.7852L-82.0684 178.73C-82.0684 180.209 -80.8645 181.447 -79.3511 181.447C-77.8721 181.447 -76.6338 180.243 -76.6338 178.73V89.3994H-32.9855V178.73C-32.9855 180.209 -31.7816 181.447 -30.2682 181.447C-28.7892 181.447 -27.5509 180.243 -27.5509 178.73V149.802L-1.47888 135.011L23.7333 149.114C23.7333 149.114 24.7995 149.836 26.4162 149.802C27.8608 149.733 28.3079 149.595 28.9614 149.148L53.9328 135.045L80.0737 149.63V178.73C80.0737 180.209 81.2775 181.447 82.791 181.447C84.27 181.447 85.5082 180.243 85.5082 178.73V89.3994H129.157V178.73C129.157 180.209 130.36 181.447 131.874 181.447C133.353 181.447 134.591 180.243 134.591 178.73V121.286H153.99V178.627C153.99 180.175 155.229 181.413 156.776 181.413C158.324 181.413 159.562 180.175 159.562 178.627V89.3994H196.71V117.399L180.888 134.288C179.856 135.423 179.925 137.109 181.06 138.175C181.576 138.691 182.333 138.898 183.055 138.932C183.777 138.932 184.465 138.588 184.947 138.072L215.043 106.185L247.925 138.175C248.717 138.932 249.748 139.138 250.78 138.726C251.743 138.313 252.294 137.35 252.294 136.18V121.836H314.275V178.73C314.275 180.209 315.479 181.447 316.992 181.447C318.471 181.447 319.71 180.243 319.71 178.73V119.222C319.71 117.674 318.574 116.436 317.13 116.436H302.305V108.696H337.802V148.804C337.802 150.318 339.006 151.556 340.519 151.556C342.032 151.556 343.236 150.318 343.236 148.804V125.276L362.188 114.578L389.155 129.645C389.568 129.885 390.049 129.989 390.531 129.989C390.634 129.989 390.771 129.989 390.943 129.989C391.528 130.057 392.113 129.954 392.663 129.645L419.182 114.578L445.186 129.163V178.696C445.186 180.175 446.389 181.413 447.903 181.413C449.382 181.413 450.62 180.209 450.62 178.696V89.3994H494.647V178.696C494.647 180.175 495.851 181.413 497.364 181.413C498.843 181.413 500.081 180.209 500.081 178.696V121.252H519.102V178.592C519.102 180.14 520.375 181.413 521.923 181.413C523.471 181.413 524.743 180.14 524.743 178.592V89.365H562.269V117.365L546.344 134.254C545.312 135.355 545.381 137.074 546.481 138.141C547.582 139.173 549.336 139.138 550.368 138.038L580.43 106.151L613.312 138.141C614.104 138.898 615.204 139.104 616.236 138.691C617.199 138.244 617.818 137.281 617.818 136.146V121.802H679.593V178.627C679.593 180.175 680.832 181.413 682.379 181.413C683.927 181.413 685.165 180.175 685.165 178.627V119.188C685.165 117.64 683.927 116.401 682.379 116.401H667.761V108.662H702.879V146.878L697.72 149.526C696.413 150.18 695.863 151.831 696.55 153.207C697.238 154.583 698.889 155.133 700.265 154.445L730.671 139.207L762.35 154.445C763.106 154.789 763.966 154.789 764.723 154.445L796.333 139.173L828.39 153.757V178.627C828.39 180.175 829.628 181.413 831.176 181.413C832.724 181.413 833.962 180.175 833.962 178.627V152.003C833.962 150.902 833.377 149.939 832.414 149.492L797.468 133.669C796.746 133.325 795.92 133.36 795.163 133.669L763.485 148.907L731.806 133.635C731.049 133.291 730.018 133.291 729.227 133.635L708.245 144.057V105.91C708.245 104.225 707.213 102.986 705.837 102.986H697.892V86.4068C697.892 85.3749 697.238 84.3773 696.275 83.9301L686.61 79.3553V75.262H704.702V81.144C704.702 82.6918 705.975 83.9646 707.523 83.9646H749.52V124.038C749.52 124.347 749.589 124.691 749.727 125.001C749.623 125.31 749.589 125.62 749.589 125.964C749.589 127.478 750.862 128.785 752.375 128.785H911.181V123.178V123.212ZM798.156 89.021C795.611 91.2224 792.653 92.392 789.626 92.392C780.786 92.392 773.632 82.6574 773.632 70.6527C773.632 70.5839 773.632 70.5495 773.632 70.4807C773.769 60.3334 785.051 33.5377 789.626 23.0464C793.925 32.9185 802.421 53.2475 804.932 65.1835C800.048 74.23 797.571 80.6968 797.571 84.4805C797.571 86.0284 797.777 87.5419 798.156 89.021ZM791.38 97.7924C794.544 97.4484 797.571 96.2445 800.323 94.1806C803.659 99.3747 809.3 102.849 815.766 103.64V123.178H791.38V97.7924ZM834.547 84.4805C834.547 92.1168 827.495 98.3428 818.793 98.3428C810.091 98.3428 803.04 92.1168 803.04 84.4805C803.04 79.1489 811.364 64.2547 818.793 52.6283C826.223 64.2547 834.547 79.1489 834.547 84.4805ZM682.62 83.4142C682.895 83.5862 683.17 83.7238 683.377 83.7582L692.629 88.161V103.021H665.25C663.771 103.021 662.43 104.431 662.43 105.945V116.333H630.063V88.6426L660.435 72.8885L682.586 83.4486L682.62 83.4142ZM615.239 116.367C615.032 116.367 614.826 116.436 614.585 116.505C614.448 116.505 614.31 116.505 614.172 116.573C613.932 116.677 613.725 116.814 613.519 116.952C613.416 117.021 613.313 117.055 613.209 117.158C613.003 117.33 612.865 117.571 612.728 117.777C612.659 117.881 612.59 117.949 612.521 118.053C612.349 118.397 612.246 118.775 612.246 119.153V129.61L582.116 100.2C581.565 99.6842 580.98 99.4435 580.327 99.4435C579.57 99.4435 578.917 99.7187 578.332 100.303L567.807 111.517V86.7852C567.807 85.2717 566.465 83.9646 564.952 83.9646H544.486V71.2374H624.594V116.367H615.204H615.239ZM249.68 116.367C248.579 116.436 247.581 117.193 247.134 118.156C246.997 118.465 246.894 118.809 246.894 119.153V129.61L216.763 100.2C216.212 99.6842 215.628 99.4435 214.974 99.4435C214.183 99.4435 213.461 99.7187 212.945 100.303L202.351 111.551V86.7852C202.351 85.2373 201.113 83.9646 199.634 83.9646H179.031V71.2374H259.138V116.367H249.886C249.886 116.367 249.748 116.367 249.68 116.367ZM317.199 83.4142C317.474 83.6206 317.749 83.7582 317.921 83.7926L327.105 88.1955V103.021H299.898C299.898 103.021 299.76 103.021 299.691 103.021C298.247 103.158 296.94 104.5 296.94 105.945V116.333H264.607V88.6426L295.048 72.8885L317.233 83.4142H317.199ZM361.019 108.903C361.019 108.903 360.916 108.937 360.881 108.972L343.271 118.913V105.979C343.271 104.569 342.273 103.055 340.657 103.055H332.746V86.4756C332.746 85.4436 332.058 84.4461 331.026 83.9989L321.257 79.4241V75.3307H339.522V81.2127C339.522 82.7262 340.794 84.0333 342.308 84.0333H384.133V120.598L363.496 109.006C363.083 108.765 362.636 108.662 362.188 108.662C361.776 108.662 361.363 108.765 360.985 108.972L361.019 108.903Z" fill="white"/>
<path d="M458.325 99.5123C456.846 99.5123 455.607 100.751 455.607 102.264V109.316C455.607 110.829 456.811 112.067 458.325 112.067C459.838 112.067 461.042 110.829 461.042 109.316V102.264C461.042 100.751 459.838 99.5123 458.325 99.5123Z" fill="white"/>
<path d="M473.425 99.5123C471.912 99.5123 470.604 100.785 470.604 102.264V109.316C470.604 110.829 471.877 112.067 473.425 112.067C474.973 112.067 476.245 110.829 476.245 109.316V102.264C476.245 100.751 474.973 99.5123 473.425 99.5123Z" fill="white"/>
<path d="M486.667 99.5123C485.187 99.5123 483.949 100.751 483.949 102.264V109.316C483.949 110.829 485.153 112.067 486.667 112.067C488.18 112.067 489.384 110.829 489.384 109.316V102.264C489.384 100.751 488.18 99.5123 486.667 99.5123Z" fill="white"/>
<path d="M458.325 122.834C456.846 122.834 455.607 124.072 455.607 125.586V132.637C455.607 134.151 456.811 135.389 458.325 135.389C459.838 135.389 461.042 134.185 461.042 132.637V125.586C461.042 124.072 459.838 122.834 458.325 122.834Z" fill="white"/>
<path d="M473.425 122.834C471.912 122.834 470.604 124.107 470.604 125.586V132.637C470.604 134.151 471.877 135.389 473.425 135.389C474.973 135.389 476.245 134.151 476.245 132.637V125.586C476.245 124.072 474.973 122.834 473.425 122.834Z" fill="white"/>
<path d="M486.667 122.834C485.187 122.834 483.949 124.072 483.949 125.586V132.637C483.949 134.151 485.153 135.389 486.667 135.389C488.18 135.389 489.384 134.185 489.384 132.637V125.586C489.384 124.072 488.18 122.834 486.667 122.834Z" fill="white"/>
<path d="M458.325 147.841C456.846 147.841 455.607 149.079 455.607 150.593V157.644C455.607 159.158 456.811 160.396 458.325 160.396C459.838 160.396 461.042 159.158 461.042 157.644V150.593C461.042 149.079 459.838 147.841 458.325 147.841Z" fill="white"/>
<path d="M473.425 147.841C471.912 147.841 470.604 149.114 470.604 150.593V157.644C470.604 159.158 471.877 160.396 473.425 160.396C474.973 160.396 476.245 159.158 476.245 157.644V150.593C476.245 149.079 474.973 147.841 473.425 147.841Z" fill="white"/>
<path d="M486.667 147.841C485.187 147.841 483.949 149.079 483.949 150.593V157.644C483.949 159.158 485.153 160.396 486.667 160.396C488.18 160.396 489.384 159.158 489.384 157.644V150.593C489.384 149.079 488.18 147.841 486.667 147.841Z" fill="white"/>
<path d="M712.992 93.6303V100.682C712.992 102.195 714.265 103.434 715.813 103.434C717.36 103.434 718.633 102.195 718.633 100.682V93.6303C718.633 92.1168 717.36 90.8785 715.813 90.8785C714.265 90.8785 712.992 92.1168 712.992 93.6303Z" fill="white"/>
<path d="M726.337 93.6303V100.682C726.337 102.195 727.541 103.434 729.054 103.434C730.568 103.434 731.771 102.195 731.771 100.682V93.6303C731.771 92.1168 730.568 90.8785 729.054 90.8785C727.541 90.8785 726.337 92.1168 726.337 93.6303Z" fill="white"/>
<path d="M739.82 93.6303V100.682C739.82 102.195 741.024 103.434 742.538 103.434C744.051 103.434 745.255 102.195 745.255 100.682V93.6303C745.255 92.1168 744.051 90.8785 742.538 90.8785C741.024 90.8785 739.82 92.1168 739.82 93.6303Z" fill="white"/>
<path d="M651.904 134.013C650.391 134.013 649.084 135.286 649.084 136.765V143.816C649.084 145.295 650.357 146.568 651.904 146.568C653.452 146.568 654.725 145.295 654.725 143.816V136.765C654.725 135.286 653.452 134.013 651.904 134.013Z" fill="white"/>
<path d="M663.565 134.013C662.051 134.013 660.744 135.286 660.744 136.765V143.816C660.744 145.33 662.017 146.568 663.565 146.568C665.112 146.568 666.385 145.33 666.385 143.816V136.765C666.385 135.251 665.112 134.013 663.565 134.013Z" fill="white"/>
<path d="M604.955 80.7312C603.476 80.7312 602.237 81.9695 602.237 83.483V90.5345C602.237 92.048 603.441 93.2863 604.955 93.2863C606.468 93.2863 607.672 92.048 607.672 90.5345V83.483C607.672 81.9695 606.468 80.7312 604.955 80.7312Z" fill="white"/>
<path d="M604.955 100.751C603.476 100.751 602.237 101.989 602.237 103.502V110.554C602.237 112.067 603.441 113.306 604.955 113.306C606.468 113.306 607.672 112.102 607.672 110.554V103.502C607.672 101.989 606.468 100.751 604.955 100.751Z" fill="white"/>
<path d="M581.737 80.7312C580.224 80.7312 578.917 82.0039 578.917 83.483V90.5345C578.917 92.048 580.19 93.2863 581.737 93.2863C583.285 93.2863 584.558 92.0136 584.558 90.5345V83.483C584.558 82.0039 583.285 80.7312 581.737 80.7312Z" fill="white"/>
<path d="M533.858 95.8661C532.379 95.8661 531.141 97.1045 531.141 98.618V105.669C531.141 107.183 532.345 108.421 533.858 108.421C535.371 108.421 536.575 107.183 536.575 105.669V98.618C536.575 97.1045 535.371 95.8661 533.858 95.8661Z" fill="white"/>
<path d="M546.756 105.669V98.618C546.756 97.1389 545.483 95.8661 543.936 95.8661C542.388 95.8661 541.115 97.1389 541.115 98.618V105.669C541.115 107.183 542.388 108.421 543.936 108.421C545.483 108.421 546.756 107.183 546.756 105.669Z" fill="white"/>
<path d="M555.286 105.669V98.618C555.286 97.1045 554.014 95.8661 552.466 95.8661C550.918 95.8661 549.646 97.1045 549.646 98.618V105.669C549.646 107.183 550.918 108.421 552.466 108.421C554.014 108.421 555.286 107.183 555.286 105.669Z" fill="white"/>
<path d="M93.1787 99.5123C91.6997 99.5123 90.4614 100.751 90.4614 102.264V109.316C90.4614 110.829 91.6653 112.067 93.1787 112.067C94.6921 112.067 95.896 110.829 95.896 109.316V102.264C95.896 100.751 94.6921 99.5123 93.1787 99.5123Z" fill="white"/>
<path d="M108.003 99.5123C106.524 99.5123 105.286 100.751 105.286 102.264V109.316C105.286 110.829 106.489 112.067 108.003 112.067C109.516 112.067 110.72 110.829 110.72 109.316V102.264C110.72 100.751 109.516 99.5123 108.003 99.5123Z" fill="white"/>
<path d="M121.52 99.5123C120.041 99.5123 118.803 100.751 118.803 102.264V109.316C118.803 110.829 120.007 112.067 121.52 112.067C123.034 112.067 124.238 110.829 124.238 109.316V102.264C124.238 100.751 123.034 99.5123 121.52 99.5123Z" fill="white"/>
<path d="M93.1787 122.834C91.6997 122.834 90.4614 124.072 90.4614 125.586V132.637C90.4614 134.151 91.6653 135.389 93.1787 135.389C94.6921 135.389 95.896 134.185 95.896 132.637V125.586C95.896 124.072 94.6921 122.834 93.1787 122.834Z" fill="white"/>
<path d="M108.003 122.834C106.524 122.834 105.286 124.072 105.286 125.586V132.637C105.286 134.151 106.489 135.389 108.003 135.389C109.516 135.389 110.72 134.185 110.72 132.637V125.586C110.72 124.072 109.516 122.834 108.003 122.834Z" fill="white"/>
<path d="M121.52 122.834C120.041 122.834 118.803 124.072 118.803 125.586V132.637C118.803 134.151 120.007 135.389 121.52 135.389C123.034 135.389 124.238 134.185 124.238 132.637V125.586C124.238 124.072 123.034 122.834 121.52 122.834Z" fill="white"/>
<path d="M93.1787 147.841C91.6997 147.841 90.4614 149.079 90.4614 150.593V157.644C90.4614 159.158 91.6653 160.396 93.1787 160.396C94.6921 160.396 95.896 159.158 95.896 157.644V150.593C95.896 149.079 94.6921 147.841 93.1787 147.841Z" fill="white"/>
<path d="M108.003 147.841C106.524 147.841 105.286 149.079 105.286 150.593V157.644C105.286 159.158 106.489 160.396 108.003 160.396C109.516 160.396 110.72 159.158 110.72 157.644V150.593C110.72 149.079 109.516 147.841 108.003 147.841Z" fill="white"/>
<path d="M121.52 147.841C120.041 147.841 118.803 149.079 118.803 150.593V157.644C118.803 159.158 120.007 160.396 121.52 160.396C123.034 160.396 124.238 159.158 124.238 157.644V150.593C124.238 149.079 123.034 147.841 121.52 147.841Z" fill="white"/>
<path d="M350.356 90.8785C348.877 90.8785 347.639 92.1168 347.639 93.6303V100.682C347.639 102.195 348.843 103.434 350.356 103.434C351.869 103.434 353.073 102.195 353.073 100.682V93.6303C353.073 92.1168 351.869 90.8785 350.356 90.8785Z" fill="white"/>
<path d="M366.591 100.647V93.5959C366.591 92.0824 365.387 90.8441 363.874 90.8441C362.36 90.8441 361.156 92.0824 361.156 93.5959V100.647C361.156 102.161 362.36 103.399 363.874 103.399C365.387 103.399 366.591 102.161 366.591 100.647Z" fill="white"/>
<path d="M377.116 103.399C378.664 103.399 379.937 102.161 379.937 100.647V93.5959C379.937 92.0824 378.664 90.8441 377.116 90.8441C375.569 90.8441 374.296 92.1168 374.296 93.5959V100.647C374.296 102.161 375.569 103.399 377.116 103.399Z" fill="white"/>
<path d="M286.483 134.013C285.004 134.013 283.766 135.251 283.766 136.765V143.816C283.766 145.33 284.969 146.568 286.483 146.568C287.996 146.568 289.2 145.33 289.2 143.816V136.765C289.2 135.251 287.996 134.013 286.483 134.013Z" fill="white"/>
<path d="M298.178 134.013C296.699 134.013 295.461 135.251 295.461 136.765V143.816C295.461 145.33 296.665 146.568 298.178 146.568C299.692 146.568 300.895 145.33 300.895 143.816V136.765C300.895 135.251 299.692 134.013 298.178 134.013Z" fill="white"/>
<path d="M239.568 80.7312C238.054 80.7312 236.747 82.0039 236.747 83.483V90.5345C236.747 92.048 238.02 93.2863 239.568 93.2863C241.115 93.2863 242.388 92.048 242.388 90.5345V83.483C242.388 81.9695 241.115 80.7312 239.568 80.7312Z" fill="white"/>
<path d="M239.568 100.751C238.054 100.751 236.747 102.023 236.747 103.502V110.554C236.747 112.067 238.02 113.306 239.568 113.306C241.115 113.306 242.388 112.067 242.388 110.554V103.502C242.388 101.989 241.115 100.751 239.568 100.751Z" fill="white"/>
<path d="M216.316 80.7312C214.837 80.7312 213.599 81.9695 213.599 83.483V90.5345C213.599 92.048 214.802 93.2863 216.316 93.2863C217.829 93.2863 219.033 92.048 219.033 90.5345V83.483C219.033 81.9695 217.829 80.7312 216.316 80.7312Z" fill="white"/>
<path d="M168.746 95.8661C167.267 95.8661 166.029 97.1045 166.029 98.618V105.669C166.029 107.183 167.233 108.421 168.746 108.421C170.26 108.421 171.463 107.183 171.463 105.669V98.618C171.463 97.1045 170.26 95.8661 168.746 95.8661Z" fill="white"/>
<path d="M181.266 105.669V98.618C181.266 97.1045 180.062 95.8661 178.549 95.8661C177.035 95.8661 175.832 97.1045 175.832 98.618V105.669C175.832 107.183 177.035 108.421 178.549 108.421C180.062 108.421 181.266 107.183 181.266 105.669Z" fill="white"/>
<path d="M190.14 105.669V98.618C190.14 97.1045 188.868 95.8661 187.32 95.8661C185.772 95.8661 184.5 97.1045 184.5 98.618V105.669C184.5 107.183 185.772 108.421 187.32 108.421C188.868 108.421 190.14 107.183 190.14 105.669Z" fill="white"/>
<path d="M-6.77595 66.7657C-6.77595 66.7657 -6.63836 66.7657 -6.56957 66.7657H22.9077C18.6082 68.6232 15.6501 72.9573 15.6501 77.773C15.6501 78.5985 15.7533 79.4585 15.9253 80.3184C16.2005 81.5911 17.3355 82.4855 18.6082 82.4855H66.4872C67.7943 82.4855 68.9293 81.5567 69.1701 80.284C69.3421 79.4241 69.4453 78.5985 69.4453 77.7386C69.4453 71.891 65.2146 66.9033 59.5393 65.9058C57.6819 58.0632 50.5619 52.4219 42.4101 52.4219C41.5158 52.4219 40.6215 52.4907 39.7616 52.6283C38.1794 51.3556 36.322 50.4957 34.3615 50.1517C32.5041 42.3091 25.3842 36.6678 17.2324 36.6678C9.08054 36.6678 1.9606 42.3778 0.0688257 50.2549C-5.46891 51.39 -9.56201 56.3433 -9.56201 62.0189C-9.56201 62.8444 -9.45882 63.7388 -9.28685 64.5643C-9.04607 65.7682 -7.9798 66.6626 -6.77595 66.7313V66.7657ZM2.02939 55.5177C2.02939 55.5177 2.30456 55.5521 2.44214 55.5521C3.68039 55.5521 4.71227 54.7954 5.09062 53.5571C5.19381 53.2131 5.2282 52.8691 5.19381 52.8003C5.95052 46.7807 11.1099 42.2059 17.198 42.2059C23.286 42.2059 28.239 46.4712 29.1677 52.3875C29.0645 53.0411 29.2365 53.6947 29.6837 54.417C30.234 55.2769 31.2315 55.7241 32.2289 55.6553C30.2684 57.0656 28.5142 58.9919 27.1728 61.1245H-4.02428C-3.61153 58.0976 -1.10063 55.6897 2.02939 55.4833V55.5177ZM30.8875 66.353C31.0251 65.9402 31.2315 65.5274 31.4034 65.1147C31.5066 64.8739 31.6098 64.5987 31.7474 64.3235C31.9194 63.9795 32.1602 63.7044 32.3665 63.3604C32.5729 63.0852 32.7105 62.7756 32.9169 62.5004C33.0888 62.2941 33.2608 62.1565 33.4328 61.9501C33.7424 61.6061 34.0519 61.2621 34.3959 60.9526C34.4647 60.9182 34.4991 60.8838 34.5679 60.815C36.7004 59.0263 39.4521 57.9256 42.4101 57.9256C48.4294 57.9256 53.4512 62.1909 54.3799 68.1073C54.2767 68.7264 54.4487 69.4144 54.7926 69.9647C54.7926 69.9647 54.8958 70.1367 54.8958 70.1711C55.5837 71.203 56.8564 71.6502 58.0258 71.2718C60.9495 71.6158 63.1508 73.9205 63.5292 76.8442H21.1191C21.5318 73.7829 24.0771 71.375 27.0696 71.203C28.4454 71.4094 29.8212 70.6527 30.234 69.2768C30.3372 68.9328 30.3716 68.5888 30.3372 68.52C30.406 68.0385 30.5435 67.6257 30.6467 67.1785C30.7155 66.9033 30.7499 66.5938 30.8531 66.3186L30.8875 66.353Z" fill="white"/>
<path d="M924.286 99.5123C922.807 99.5123 921.568 100.751 921.568 102.264V109.316C921.568 110.829 922.772 112.067 924.286 112.067C925.799 112.067 927.003 110.829 927.003 109.316V102.264C927.003 100.751 925.799 99.5123 924.286 99.5123Z" fill="white"/>
<path d="M939.076 99.5123C937.597 99.5123 936.358 100.751 936.358 102.264V109.316C936.358 110.829 937.562 112.067 939.076 112.067C940.589 112.067 941.793 110.829 941.793 109.316V102.264C941.793 100.751 940.589 99.5123 939.076 99.5123Z" fill="white"/>
<path d="M952.627 99.5123C951.148 99.5123 949.91 100.751 949.91 102.264V109.316C949.91 110.829 951.114 112.067 952.627 112.067C954.141 112.067 955.345 110.829 955.345 109.316V102.264C955.345 100.751 954.141 99.5123 952.627 99.5123Z" fill="white"/>
<path d="M924.286 122.834C922.807 122.834 921.568 124.072 921.568 125.586V132.637C921.568 134.151 922.772 135.389 924.286 135.389C925.799 135.389 927.003 134.185 927.003 132.637V125.586C927.003 124.072 925.799 122.834 924.286 122.834Z" fill="white"/>
<path d="M939.076 122.834C937.597 122.834 936.358 124.072 936.358 125.586V132.637C936.358 134.151 937.562 135.389 939.076 135.389C940.589 135.389 941.793 134.185 941.793 132.637V125.586C941.793 124.072 940.589 122.834 939.076 122.834Z" fill="white"/>
<path d="M952.627 122.834C951.148 122.834 949.91 124.072 949.91 125.586V132.637C949.91 134.151 951.114 135.389 952.627 135.389C954.141 135.389 955.345 134.185 955.345 132.637V125.586C955.345 124.072 954.141 122.834 952.627 122.834Z" fill="white"/>
<path d="M924.286 147.841C922.807 147.841 921.568 149.079 921.568 150.593V157.644C921.568 159.158 922.772 160.396 924.286 160.396C925.799 160.396 927.003 159.158 927.003 157.644V150.593C927.003 149.079 925.799 147.841 924.286 147.841Z" fill="white"/>
<path d="M939.076 147.841C937.597 147.841 936.358 149.079 936.358 150.593V157.644C936.358 159.158 937.562 160.396 939.076 160.396C940.589 160.396 941.793 159.158 941.793 157.644V150.593C941.793 149.079 940.589 147.841 939.076 147.841Z" fill="white"/>
<path d="M952.627 147.841C951.148 147.841 949.91 149.079 949.91 150.593V157.644C949.91 159.158 951.114 160.396 952.627 160.396C954.141 160.396 955.345 159.158 955.345 157.644V150.593C955.345 149.079 954.141 147.841 952.627 147.841Z" fill="white"/>
<path d="M1904.43 123.212H1814.42V103.709C1824.98 102.505 1833.16 94.215 1833.16 84.5149C1833.16 75.6403 1819.99 54.7266 1814.28 46.0928C1813.28 44.5793 1810.87 44.5105 1809.74 46.0928C1808.16 48.4662 1805.2 53.0067 1802.07 58.3383C1797.05 40.7268 1785.45 15.4789 1785.35 15.2037C1784.9 14.2406 1783.94 13.6215 1782.87 13.6215C1781.81 13.6215 1780.85 14.2406 1780.33 15.3413C1777.16 22.2897 1761.27 57.6848 1761.27 70.7559C1761.27 83.827 1768.7 95.3158 1779.02 97.5516V123.247H1748.34V81.2128C1748.34 79.7681 1747.17 78.5985 1745.73 78.5985H1703.7V72.5446C1703.7 70.9967 1702.42 69.724 1700.87 69.724H1677.45C1675.9 69.724 1674.56 71.0311 1674.56 72.5446V76.8099L1654.85 67.3849C1654.1 67.0065 1653.13 67.0065 1652.38 67.3849L1623.35 82.4855V68.4856C1623.35 66.9033 1622.18 65.6306 1620.73 65.6306H1535.05C1533.47 65.6306 1532.2 66.9033 1532.2 68.4856V83.9646H1515.45C1514.04 83.9646 1512.39 85.2029 1512.39 86.7852V115.61H1493.36V86.7852C1493.36 85.2029 1492.23 83.9646 1490.79 83.9646H1441.43C1439.91 83.9646 1438.5 85.3061 1438.5 86.7852V122.834L1413.81 109.006C1412.98 108.524 1411.98 108.524 1411.16 109.006L1384.16 124.279L1382.82 123.591V81.1783C1382.82 79.6305 1381.82 78.5641 1380.34 78.5641H1338.17V72.5102C1338.17 70.9279 1337 69.6895 1335.56 69.6895H1312.1C1310.69 69.6895 1309.07 70.9279 1309.07 72.5102V76.7755L1289.43 67.3505C1288.68 66.9721 1287.71 66.9721 1286.92 67.3505L1257.86 82.4511V68.4512C1257.86 66.8345 1256.79 65.5962 1255.38 65.5962H1169.67C1168.15 65.5962 1166.91 66.9033 1166.91 68.4512V83.9302H1150.13C1148.55 83.9302 1147.27 85.2029 1147.27 86.7852V115.61H1127.87V86.7852C1127.87 85.1341 1126.84 83.9646 1125.43 83.9646H1076.07C1074.6 83.9646 1073.39 85.2373 1073.39 86.7852V143.3L1048.59 129.473C1047.77 128.991 1046.7 128.991 1045.87 129.473L1019.67 144.298L993.146 129.473C992.32 128.991 991.289 128.991 990.463 129.473L965.698 143.507V86.8195C965.733 85.1685 964.735 83.9989 963.29 83.9989H913.932C912.453 83.9989 911.249 85.2717 911.249 86.8195L911.181 178.764C911.181 180.243 912.385 181.482 913.898 181.482C915.377 181.482 916.615 180.278 916.615 178.764V89.4338H960.264V178.764C960.264 180.243 961.467 181.482 962.981 181.482C964.46 181.482 965.698 180.278 965.698 178.764V149.836L991.805 135.079L1017.02 149.182C1017.02 149.182 1018.08 149.905 1019.7 149.87C1021.14 149.802 1021.59 149.664 1022.24 149.217L1047.22 135.114L1073.36 149.698V178.799C1073.36 180.278 1074.56 181.516 1076.07 181.516C1077.55 181.516 1078.79 180.312 1078.79 178.799V89.4682H1122.44V178.799C1122.44 180.278 1123.64 181.516 1125.16 181.516C1126.64 181.516 1127.87 180.312 1127.87 178.799V121.355H1147.27V178.696C1147.27 180.243 1148.51 181.482 1150.06 181.482C1151.61 181.482 1152.85 180.243 1152.85 178.696V89.4682H1189.99V117.468L1174.17 134.357C1173.14 135.492 1173.21 137.178 1174.34 138.244C1174.86 138.76 1175.62 138.966 1176.34 139.001C1177.06 139.001 1177.75 138.657 1178.23 138.141L1208.33 106.254L1241.21 138.244C1242 139.001 1243.03 139.207 1244.06 138.794C1245.03 138.382 1245.58 137.418 1245.58 136.249V121.905H1307.56V178.799C1307.56 180.278 1308.76 181.516 1310.28 181.516C1311.75 181.516 1312.99 180.312 1312.99 178.799V119.291C1312.99 117.743 1311.86 116.505 1310.41 116.505H1295.59V108.765H1331.09V148.873C1331.09 150.386 1332.29 151.625 1333.8 151.625C1335.32 151.625 1336.52 150.386 1336.52 148.873V125.345L1355.47 114.647L1382.44 129.713C1382.85 129.954 1383.33 130.057 1383.81 130.057C1383.92 130.057 1384.05 130.057 1384.23 130.057C1384.81 130.126 1385.4 130.023 1385.95 129.713L1412.47 114.647L1438.47 129.232V178.764C1438.47 180.243 1439.67 181.482 1441.19 181.482C1442.67 181.482 1443.9 180.278 1443.9 178.764V89.4682H1487.93V178.764C1487.93 180.243 1489.13 181.482 1490.65 181.482C1492.13 181.482 1493.36 180.278 1493.36 178.764V121.32H1512.39V178.661C1512.39 180.209 1513.66 181.482 1515.21 181.482C1516.75 181.482 1518.03 180.209 1518.03 178.661V89.4338H1555.55V117.433L1539.63 134.323C1538.6 135.423 1538.66 137.143 1539.76 138.21C1540.87 139.242 1542.62 139.207 1543.65 138.106L1573.71 106.22L1606.6 138.21C1607.39 138.966 1608.49 139.173 1609.52 138.76C1610.48 138.313 1611.1 137.35 1611.1 136.215V121.871H1672.88V178.696C1672.88 180.243 1674.12 181.482 1675.66 181.482C1677.21 181.482 1678.45 180.243 1678.45 178.696V119.256C1678.45 117.709 1677.21 116.47 1675.66 116.47H1661.04V108.731H1696.16V146.947L1691 149.595C1689.7 150.249 1689.15 151.9 1689.83 153.276C1690.52 154.652 1692.17 155.202 1693.55 154.514L1723.95 139.276L1755.63 154.514C1756.39 154.858 1757.25 154.858 1758.01 154.514L1789.62 139.242L1821.67 153.826V178.696C1821.67 180.243 1822.91 181.482 1824.46 181.482C1826.01 181.482 1827.25 180.243 1827.25 178.696V152.072C1827.25 150.971 1826.66 150.008 1825.7 149.561L1790.75 133.738C1790.03 133.394 1789.2 133.428 1788.45 133.738L1756.77 148.976L1725.09 133.703C1724.33 133.36 1723.3 133.36 1722.51 133.703L1701.53 144.126V105.979C1701.53 104.294 1700.5 103.055 1699.12 103.055H1691.18V86.4756C1691.18 85.4437 1690.52 84.4461 1689.56 83.9989L1679.89 79.4241V75.3308H1697.99V81.2128C1697.99 82.7606 1699.26 84.0334 1700.81 84.0334H1742.8V124.107C1742.8 124.416 1742.87 124.76 1743.01 125.07C1742.91 125.379 1742.87 125.689 1742.87 126.033C1742.87 127.546 1744.14 128.853 1745.66 128.853H1904.46V123.247L1904.43 123.212ZM1791.37 89.021C1788.83 91.2224 1785.87 92.392 1782.84 92.392C1774 92.392 1766.85 82.6575 1766.85 70.6527C1766.85 70.5839 1766.85 70.5495 1766.85 70.4807C1766.98 60.3334 1778.27 33.5377 1782.84 23.0464C1787.14 32.9185 1795.64 53.2475 1798.15 65.1835C1793.26 74.23 1790.79 80.6968 1790.79 84.4805C1790.79 86.0284 1790.99 87.5419 1791.37 89.021ZM1784.59 97.7924C1787.76 97.4484 1790.79 96.2445 1793.54 94.1806C1796.87 99.3747 1802.51 102.849 1808.98 103.64V123.178H1784.59V97.7924ZM1827.76 84.4805C1827.76 92.1168 1820.71 98.3428 1812.01 98.3428C1803.31 98.3428 1796.25 92.1168 1796.25 84.4805C1796.25 79.1489 1804.58 64.2547 1812.01 52.6283C1819.44 64.2547 1827.76 79.1489 1827.76 84.4805ZM1675.87 83.4142C1676.14 83.5862 1676.42 83.7238 1676.63 83.7582L1685.88 88.1611V103.021H1658.5C1657.02 103.021 1655.68 104.431 1655.68 105.945V116.333H1623.31V88.6426L1653.68 72.8885L1675.83 83.4486L1675.87 83.4142ZM1608.45 116.367C1608.25 116.367 1608.04 116.436 1607.8 116.505C1607.66 116.505 1607.52 116.505 1607.39 116.573C1607.15 116.677 1606.94 116.814 1606.73 116.952C1606.63 117.021 1606.53 117.055 1606.42 117.158C1606.22 117.33 1606.08 117.571 1605.94 117.777C1605.87 117.881 1605.8 117.949 1605.74 118.053C1605.56 118.397 1605.46 118.775 1605.46 119.153V129.61L1575.33 100.2C1574.78 99.6843 1574.2 99.4435 1573.54 99.4435C1572.78 99.4435 1572.13 99.7187 1571.55 100.303L1561.02 111.517V86.7852C1561.02 85.2717 1559.68 83.9646 1558.17 83.9646H1537.7V71.2374H1617.81V116.367H1608.42H1608.45ZM1242.93 116.367C1241.83 116.436 1240.83 117.193 1240.38 118.156C1240.25 118.465 1240.14 118.809 1240.14 119.153V129.61L1210.01 100.2C1209.46 99.6843 1208.88 99.4435 1208.22 99.4435C1207.43 99.4435 1206.71 99.7187 1206.19 100.303L1195.6 111.551V86.7852C1195.6 85.2373 1194.36 83.9646 1192.88 83.9646H1172.28V71.2374H1252.39V116.367H1243.14C1243.14 116.367 1243 116.367 1242.93 116.367ZM1310.41 83.4142C1310.69 83.6206 1310.96 83.7582 1311.14 83.7926L1320.32 88.1955V103.021H1293.11C1293.11 103.021 1292.97 103.021 1292.91 103.021C1291.46 103.158 1290.15 104.5 1290.15 105.945V116.333H1257.82V88.6426L1288.26 72.8885L1310.45 83.4142H1310.41ZM1354.27 108.903C1354.27 108.903 1354.16 108.937 1354.13 108.972L1336.52 118.913V105.979C1336.52 104.569 1335.52 103.055 1333.91 103.055H1325.99V86.4756C1325.99 85.4437 1325.31 84.4461 1324.27 83.9989L1314.51 79.4241V75.3308H1332.77V81.2128C1332.77 82.7262 1334.04 84.0334 1335.56 84.0334H1377.38V120.598L1356.74 109.006C1356.33 108.765 1355.88 108.662 1355.44 108.662C1355.02 108.662 1354.61 108.765 1354.23 108.972L1354.27 108.903Z" fill="white"/>
<path d="M1451.54 99.5123C1450.06 99.5123 1448.82 100.751 1448.82 102.264V109.316C1448.82 110.829 1450.03 112.067 1451.54 112.067C1453.05 112.067 1454.26 110.829 1454.26 109.316V102.264C1454.26 100.751 1453.05 99.5123 1451.54 99.5123Z" fill="white"/>
<path d="M1466.64 99.5123C1465.13 99.5123 1463.82 100.785 1463.82 102.264V109.316C1463.82 110.829 1465.09 112.067 1466.64 112.067C1468.19 112.067 1469.46 110.829 1469.46 109.316V102.264C1469.46 100.751 1468.19 99.5123 1466.64 99.5123Z" fill="white"/>
<path d="M1479.88 99.5123C1478.4 99.5123 1477.16 100.751 1477.16 102.264V109.316C1477.16 110.829 1478.37 112.067 1479.88 112.067C1481.39 112.067 1482.6 110.829 1482.6 109.316V102.264C1482.6 100.751 1481.39 99.5123 1479.88 99.5123Z" fill="white"/>
<path d="M1451.54 122.834C1450.06 122.834 1448.82 124.072 1448.82 125.586V132.637C1448.82 134.151 1450.03 135.389 1451.54 135.389C1453.05 135.389 1454.26 134.185 1454.26 132.637V125.586C1454.26 124.072 1453.05 122.834 1451.54 122.834Z" fill="white"/>
<path d="M1466.64 122.834C1465.13 122.834 1463.82 124.107 1463.82 125.586V132.637C1463.82 134.151 1465.09 135.389 1466.64 135.389C1468.19 135.389 1469.46 134.151 1469.46 132.637V125.586C1469.46 124.072 1468.19 122.834 1466.64 122.834Z" fill="white"/>
<path d="M1479.88 122.834C1478.4 122.834 1477.16 124.072 1477.16 125.586V132.637C1477.16 134.151 1478.37 135.389 1479.88 135.389C1481.39 135.389 1482.6 134.185 1482.6 132.637V125.586C1482.6 124.072 1481.39 122.834 1479.88 122.834Z" fill="white"/>
<path d="M1451.54 147.841C1450.06 147.841 1448.82 149.079 1448.82 150.593V157.644C1448.82 159.158 1450.03 160.396 1451.54 160.396C1453.05 160.396 1454.26 159.158 1454.26 157.644V150.593C1454.26 149.079 1453.05 147.841 1451.54 147.841Z" fill="white"/>
<path d="M1466.64 147.841C1465.13 147.841 1463.82 149.114 1463.82 150.593V157.644C1463.82 159.158 1465.09 160.396 1466.64 160.396C1468.19 160.396 1469.46 159.158 1469.46 157.644V150.593C1469.46 149.079 1468.19 147.841 1466.64 147.841Z" fill="white"/>
<path d="M1479.88 147.841C1478.4 147.841 1477.16 149.079 1477.16 150.593V157.644C1477.16 159.158 1478.37 160.396 1479.88 160.396C1481.39 160.396 1482.6 159.158 1482.6 157.644V150.593C1482.6 149.079 1481.39 147.841 1479.88 147.841Z" fill="white"/>
<path d="M1706.21 93.6303V100.682C1706.21 102.195 1707.48 103.434 1709.03 103.434C1710.57 103.434 1711.85 102.195 1711.85 100.682V93.6303C1711.85 92.1168 1710.57 90.8785 1709.03 90.8785C1707.48 90.8785 1706.21 92.1168 1706.21 93.6303Z" fill="white"/>
<path d="M1719.55 93.6303V100.682C1719.55 102.195 1720.76 103.434 1722.27 103.434C1723.78 103.434 1724.99 102.195 1724.99 100.682V93.6303C1724.99 92.1168 1723.78 90.8785 1722.27 90.8785C1720.76 90.8785 1719.55 92.1168 1719.55 93.6303Z" fill="white"/>
<path d="M1733.07 93.6303V100.682C1733.07 102.195 1734.27 103.434 1735.79 103.434C1737.3 103.434 1738.5 102.195 1738.5 100.682V93.6303C1738.5 92.1168 1737.3 90.8785 1735.79 90.8785C1734.27 90.8785 1733.07 92.1168 1733.07 93.6303Z" fill="white"/>
<path d="M1645.12 134.013C1643.61 134.013 1642.3 135.286 1642.3 136.765V143.816C1642.3 145.295 1643.57 146.568 1645.12 146.568C1646.67 146.568 1647.94 145.295 1647.94 143.816V136.765C1647.94 135.286 1646.67 134.013 1645.12 134.013Z" fill="white"/>
<path d="M1656.81 134.013C1655.3 134.013 1653.99 135.286 1653.99 136.765V143.816C1653.99 145.33 1655.27 146.568 1656.81 146.568C1658.36 146.568 1659.63 145.33 1659.63 143.816V136.765C1659.63 135.251 1658.36 134.013 1656.81 134.013Z" fill="white"/>
<path d="M1598.2 80.7312C1596.72 80.7312 1595.49 81.9695 1595.49 83.483V90.5345C1595.49 92.048 1596.69 93.2863 1598.2 93.2863C1599.72 93.2863 1600.92 92.048 1600.92 90.5345V83.483C1600.92 81.9695 1599.72 80.7312 1598.2 80.7312Z" fill="white"/>
<path d="M1598.2 100.751C1596.72 100.751 1595.49 101.989 1595.49 103.502V110.554C1595.49 112.067 1596.69 113.306 1598.2 113.306C1599.72 113.306 1600.92 112.102 1600.92 110.554V103.502C1600.92 101.989 1599.72 100.751 1598.2 100.751Z" fill="white"/>
<path d="M1574.99 80.7312C1573.47 80.7312 1572.17 82.0039 1572.17 83.483V90.5345C1572.17 92.048 1573.44 93.2863 1574.99 93.2863C1576.53 93.2863 1577.81 92.0136 1577.81 90.5345V83.483C1577.81 82.0039 1576.53 80.7312 1574.99 80.7312Z" fill="white"/>
<path d="M1527.11 95.8661C1525.63 95.8661 1524.39 97.1045 1524.39 98.618V105.669C1524.39 107.183 1525.59 108.421 1527.11 108.421C1528.62 108.421 1529.82 107.183 1529.82 105.669V98.618C1529.82 97.1045 1528.62 95.8661 1527.11 95.8661Z" fill="white"/>
<path d="M1540.01 105.669V98.618C1540.01 97.1389 1538.73 95.8661 1537.18 95.8661C1535.64 95.8661 1534.36 97.1389 1534.36 98.618V105.669C1534.36 107.183 1535.64 108.421 1537.18 108.421C1538.73 108.421 1540.01 107.183 1540.01 105.669Z" fill="white"/>
<path d="M1548.54 105.669V98.618C1548.54 97.1045 1547.26 95.8661 1545.72 95.8661C1544.17 95.8661 1542.89 97.1045 1542.89 98.618V105.669C1542.89 107.183 1544.17 108.421 1545.72 108.421C1547.26 108.421 1548.54 107.183 1548.54 105.669Z" fill="white"/>
<path d="M1086.43 99.5123C1084.95 99.5123 1083.71 100.751 1083.71 102.264V109.316C1083.71 110.829 1084.91 112.067 1086.43 112.067C1087.94 112.067 1089.14 110.829 1089.14 109.316V102.264C1089.14 100.751 1087.94 99.5123 1086.43 99.5123Z" fill="white"/>
<path d="M1101.22 99.5123C1099.74 99.5123 1098.5 100.751 1098.5 102.264V109.316C1098.5 110.829 1099.7 112.067 1101.22 112.067C1102.73 112.067 1103.93 110.829 1103.93 109.316V102.264C1103.93 100.751 1102.73 99.5123 1101.22 99.5123Z" fill="white"/>
<path d="M1114.73 99.5123C1113.26 99.5123 1112.02 100.751 1112.02 102.264V109.316C1112.02 110.829 1113.22 112.067 1114.73 112.067C1116.25 112.067 1117.45 110.829 1117.45 109.316V102.264C1117.45 100.751 1116.25 99.5123 1114.73 99.5123Z" fill="white"/>
<path d="M1086.43 122.834C1084.95 122.834 1083.71 124.072 1083.71 125.586V132.637C1083.71 134.151 1084.91 135.389 1086.43 135.389C1087.94 135.389 1089.14 134.185 1089.14 132.637V125.586C1089.14 124.072 1087.94 122.834 1086.43 122.834Z" fill="white"/>
<path d="M1101.22 122.834C1099.74 122.834 1098.5 124.072 1098.5 125.586V132.637C1098.5 134.151 1099.7 135.389 1101.22 135.389C1102.73 135.389 1103.93 134.185 1103.93 132.637V125.586C1103.93 124.072 1102.73 122.834 1101.22 122.834Z" fill="white"/>
<path d="M1114.73 122.834C1113.26 122.834 1112.02 124.072 1112.02 125.586V132.637C1112.02 134.151 1113.22 135.389 1114.73 135.389C1116.25 135.389 1117.45 134.185 1117.45 132.637V125.586C1117.45 124.072 1116.25 122.834 1114.73 122.834Z" fill="white"/>
<path d="M1086.43 147.841C1084.95 147.841 1083.71 149.079 1083.71 150.593V157.644C1083.71 159.158 1084.91 160.396 1086.43 160.396C1087.94 160.396 1089.14 159.158 1089.14 157.644V150.593C1089.14 149.079 1087.94 147.841 1086.43 147.841Z" fill="white"/>
<path d="M1101.22 147.841C1099.74 147.841 1098.5 149.079 1098.5 150.593V157.644C1098.5 159.158 1099.7 160.396 1101.22 160.396C1102.73 160.396 1103.93 159.158 1103.93 157.644V150.593C1103.93 149.079 1102.73 147.841 1101.22 147.841Z" fill="white"/>
<path d="M1114.73 147.841C1113.26 147.841 1112.02 149.079 1112.02 150.593V157.644C1112.02 159.158 1113.22 160.396 1114.73 160.396C1116.25 160.396 1117.45 159.158 1117.45 157.644V150.593C1117.45 149.079 1116.25 147.841 1114.73 147.841Z" fill="white"/>
<path d="M1343.6 90.8785C1342.13 90.8785 1340.89 92.1168 1340.89 93.6303V100.682C1340.89 102.195 1342.09 103.434 1343.6 103.434C1345.12 103.434 1346.32 102.195 1346.32 100.682V93.6303C1346.32 92.1168 1345.12 90.8785 1343.6 90.8785Z" fill="white"/>
<path d="M1359.84 100.647V93.5959C1359.84 92.0824 1358.64 90.8441 1357.12 90.8441C1355.61 90.8441 1354.41 92.0824 1354.41 93.5959V100.647C1354.41 102.161 1355.61 103.399 1357.12 103.399C1358.64 103.399 1359.84 102.161 1359.84 100.647Z" fill="white"/>
<path d="M1370.37 103.399C1371.91 103.399 1373.19 102.161 1373.19 100.647V93.5959C1373.19 92.0824 1371.91 90.8441 1370.37 90.8441C1368.82 90.8441 1367.54 92.1168 1367.54 93.5959V100.647C1367.54 102.161 1368.82 103.399 1370.37 103.399Z" fill="white"/>
<path d="M1279.73 134.013C1278.25 134.013 1277.01 135.251 1277.01 136.765V143.816C1277.01 145.33 1278.22 146.568 1279.73 146.568C1281.25 146.568 1282.45 145.33 1282.45 143.816V136.765C1282.45 135.251 1281.25 134.013 1279.73 134.013Z" fill="white"/>
<path d="M1291.39 134.013C1289.91 134.013 1288.67 135.251 1288.67 136.765V143.816C1288.67 145.33 1289.88 146.568 1291.39 146.568C1292.91 146.568 1294.11 145.33 1294.11 143.816V136.765C1294.11 135.251 1292.91 134.013 1291.39 134.013Z" fill="white"/>
<path d="M1232.78 80.7312C1231.27 80.7312 1229.96 82.0039 1229.96 83.483V90.5345C1229.96 92.048 1231.23 93.2863 1232.78 93.2863C1234.33 93.2863 1235.6 92.048 1235.6 90.5345V83.483C1235.6 81.9695 1234.33 80.7312 1232.78 80.7312Z" fill="white"/>
<path d="M1232.78 100.751C1231.27 100.751 1229.96 102.023 1229.96 103.502V110.554C1229.96 112.067 1231.23 113.306 1232.78 113.306C1234.33 113.306 1235.6 112.067 1235.6 110.554V103.502C1235.6 101.989 1234.33 100.751 1232.78 100.751Z" fill="white"/>
<path d="M1209.56 80.7312C1208.09 80.7312 1206.85 81.9695 1206.85 83.483V90.5345C1206.85 92.048 1208.05 93.2863 1209.56 93.2863C1211.08 93.2863 1212.28 92.048 1212.28 90.5345V83.483C1212.28 81.9695 1211.08 80.7312 1209.56 80.7312Z" fill="white"/>
<path d="M1161.96 95.8661C1160.48 95.8661 1159.24 97.1045 1159.24 98.618V105.669C1159.24 107.183 1160.45 108.421 1161.96 108.421C1163.47 108.421 1164.68 107.183 1164.68 105.669V98.618C1164.68 97.1045 1163.47 95.8661 1161.96 95.8661Z" fill="white"/>
<path d="M1174.48 105.669V98.618C1174.48 97.1045 1173.28 95.8661 1171.76 95.8661C1170.25 95.8661 1169.05 97.1045 1169.05 98.618V105.669C1169.05 107.183 1170.25 108.421 1171.76 108.421C1173.28 108.421 1174.48 107.183 1174.48 105.669Z" fill="white"/>
<path d="M1183.39 105.669V98.618C1183.39 97.1045 1182.12 95.8661 1180.57 95.8661C1179.02 95.8661 1177.75 97.1045 1177.75 98.618V105.669C1177.75 107.183 1179.02 108.421 1180.57 108.421C1182.12 108.421 1183.39 107.183 1183.39 105.669Z" fill="white"/>
<path d="M986.439 66.7657C986.439 66.7657 986.577 66.7657 986.646 66.7657H1016.12C1011.82 68.6232 1008.87 72.9573 1008.87 77.773C1008.87 78.5985 1008.97 79.4585 1009.14 80.3184C1009.42 81.5911 1010.55 82.4855 1011.82 82.4855H1059.7C1061.01 82.4855 1062.14 81.5567 1062.39 80.284C1062.56 79.4241 1062.66 78.5985 1062.66 77.7386C1062.66 71.891 1058.43 66.9033 1052.75 65.9058C1050.9 58.0632 1043.78 52.4219 1035.63 52.4219C1034.73 52.4219 1033.84 52.4907 1032.98 52.6283C1031.39 51.3556 1029.54 50.4957 1027.58 50.1517C1025.72 42.3091 1018.6 36.6678 1010.45 36.6678C1002.3 36.6678 995.176 42.3091 993.318 50.1861C987.781 51.3212 983.688 56.2745 983.688 61.9501C983.688 62.7756 983.791 63.67 983.963 64.4955C984.203 65.6994 985.27 66.5938 986.474 66.6626L986.439 66.7657ZM995.279 55.5177C995.279 55.5177 995.554 55.5521 995.692 55.5521C996.93 55.5521 997.962 54.7954 998.34 53.5571C998.443 53.2131 998.478 52.8691 998.443 52.8003C999.2 46.7807 1004.36 42.2059 1010.45 42.2059C1016.54 42.2059 1021.49 46.4712 1022.42 52.3875C1022.31 53.0411 1022.49 53.6947 1022.93 54.417C1023.48 55.2769 1024.48 55.7241 1025.48 55.6553C1023.52 57.0656 1021.76 58.9919 1020.42 61.1245H989.191C989.604 58.0976 992.115 55.6897 995.245 55.4833L995.279 55.5177ZM1024.1 66.353C1024.24 65.9402 1024.45 65.5274 1024.62 65.1147C1024.72 64.8739 1024.82 64.5987 1024.96 64.3235C1025.13 63.9795 1025.38 63.7044 1025.58 63.3604C1025.79 63.0852 1025.93 62.7756 1026.13 62.5004C1026.3 62.2941 1026.48 62.1565 1026.65 61.9501C1026.96 61.6061 1027.27 61.2621 1027.61 60.9526C1027.68 60.9182 1027.71 60.8838 1027.78 60.815C1029.92 59.0263 1032.67 57.9256 1035.63 57.9256C1041.64 57.9256 1046.67 62.1909 1047.6 68.1073C1047.49 68.7264 1047.66 69.4144 1048.01 69.9647C1048.01 69.9647 1048.11 70.1367 1048.11 70.1711C1048.8 71.203 1050.07 71.6502 1051.24 71.2718C1054.16 71.6158 1056.37 73.9205 1056.74 76.8442H1014.33C1014.75 73.7829 1017.29 71.375 1020.28 71.203C1021.66 71.4094 1023.04 70.6527 1023.45 69.2768C1023.55 68.9328 1023.59 68.5888 1023.55 68.52C1023.62 68.0385 1023.76 67.6257 1023.86 67.1785C1023.93 66.9033 1023.97 66.5938 1024.07 66.3186L1024.1 66.353Z" fill="white"/>
<path d="M1917.53 99.5123C1916.05 99.5123 1914.82 100.751 1914.82 102.264V109.316C1914.82 110.829 1916.02 112.067 1917.53 112.067C1919.05 112.067 1920.25 110.829 1920.25 109.316V102.264C1920.25 100.751 1919.05 99.5123 1917.53 99.5123Z" fill="white"/>
<path d="M1917.53 122.834C1916.05 122.834 1914.82 124.072 1914.82 125.586V132.637C1914.82 134.151 1916.02 135.389 1917.53 135.389C1919.05 135.389 1920.25 134.185 1920.25 132.637V125.586C1920.25 124.072 1919.05 122.834 1917.53 122.834Z" fill="white"/>
<path d="M1917.53 147.841C1916.05 147.841 1914.82 149.079 1914.82 150.593V157.644C1914.82 159.158 1916.02 160.396 1917.53 160.396C1919.05 160.396 1920.25 159.158 1920.25 157.644V150.593C1920.25 149.079 1919.05 147.841 1917.53 147.841Z" fill="white"/>
</g>
<defs>
<clipPath id="clip0_539_3127">
<rect width="8775" height="195" fill="white"/>
</clipPath>
</defs>
</svg>
